<mxfile host="app.diagrams.net" modified="2023-03-04T08:07:29.230Z" agent="5.0 (Windows NT 10.0; Win64; x64) AppleWebKit/537.36 (KHTML, like Gecko) Chrome/110.0.0.0 Safari/537.36 Edg/110.0.1587.57" etag="lR4FMIVMio2JbAY06mUC" version="21.0.2" type="github" pages="2">
  <diagram name="Stack" id="g_EetvC8OJJZAmq-ap1P">
    <mxGraphModel dx="1050" dy="581" grid="1" gridSize="10" guides="1" tooltips="1" connect="1" arrows="1" fold="1" page="1" pageScale="1" pageWidth="3300" pageHeight="4681" math="0" shadow="0">
      <root>
        <mxCell id="0" />
        <mxCell id="1" parent="0" />
        <mxCell id="4jp5xyB6MF7-QzCfI7jD-4" value="1" style="edgeStyle=orthogonalEdgeStyle;rounded=0;orthogonalLoop=1;jettySize=auto;html=1;entryX=0.5;entryY=0;entryDx=0;entryDy=0;" parent="1" source="4jp5xyB6MF7-QzCfI7jD-1" target="4jp5xyB6MF7-QzCfI7jD-2" edge="1">
          <mxGeometry relative="1" as="geometry" />
        </mxCell>
        <mxCell id="4jp5xyB6MF7-QzCfI7jD-5" style="edgeStyle=orthogonalEdgeStyle;rounded=0;orthogonalLoop=1;jettySize=auto;html=1;" parent="1" source="4jp5xyB6MF7-QzCfI7jD-1" target="4jp5xyB6MF7-QzCfI7jD-3" edge="1">
          <mxGeometry relative="1" as="geometry" />
        </mxCell>
        <mxCell id="4jp5xyB6MF7-QzCfI7jD-6" value="2" style="edgeLabel;html=1;align=center;verticalAlign=middle;resizable=0;points=[];" parent="4jp5xyB6MF7-QzCfI7jD-5" vertex="1" connectable="0">
          <mxGeometry x="-0.0179" y="-4" relative="1" as="geometry">
            <mxPoint as="offset" />
          </mxGeometry>
        </mxCell>
        <mxCell id="4jp5xyB6MF7-QzCfI7jD-1" value="(0, 0)" style="rounded=0;whiteSpace=wrap;html=1;" parent="1" vertex="1">
          <mxGeometry x="1400" y="310" width="120" height="60" as="geometry" />
        </mxCell>
        <mxCell id="4jp5xyB6MF7-QzCfI7jD-2" value="9, 0" style="rounded=0;whiteSpace=wrap;html=1;" parent="1" vertex="1">
          <mxGeometry x="1080" y="490" width="120" height="60" as="geometry" />
        </mxCell>
        <mxCell id="4jp5xyB6MF7-QzCfI7jD-8" style="edgeStyle=orthogonalEdgeStyle;rounded=0;orthogonalLoop=1;jettySize=auto;html=1;entryX=0.5;entryY=0;entryDx=0;entryDy=0;" parent="1" source="4jp5xyB6MF7-QzCfI7jD-3" target="4jp5xyB6MF7-QzCfI7jD-7" edge="1">
          <mxGeometry relative="1" as="geometry" />
        </mxCell>
        <mxCell id="4jp5xyB6MF7-QzCfI7jD-9" value="1" style="edgeLabel;html=1;align=center;verticalAlign=middle;resizable=0;points=[];" parent="4jp5xyB6MF7-QzCfI7jD-8" vertex="1" connectable="0">
          <mxGeometry x="-0.4137" y="-2" relative="1" as="geometry">
            <mxPoint as="offset" />
          </mxGeometry>
        </mxCell>
        <mxCell id="4jp5xyB6MF7-QzCfI7jD-11" style="edgeStyle=orthogonalEdgeStyle;rounded=0;orthogonalLoop=1;jettySize=auto;html=1;entryX=0.5;entryY=0;entryDx=0;entryDy=0;" parent="1" source="4jp5xyB6MF7-QzCfI7jD-3" target="4jp5xyB6MF7-QzCfI7jD-10" edge="1">
          <mxGeometry relative="1" as="geometry" />
        </mxCell>
        <mxCell id="4jp5xyB6MF7-QzCfI7jD-12" value="6" style="edgeLabel;html=1;align=center;verticalAlign=middle;resizable=0;points=[];" parent="4jp5xyB6MF7-QzCfI7jD-11" vertex="1" connectable="0">
          <mxGeometry x="-0.0458" y="2" relative="1" as="geometry">
            <mxPoint as="offset" />
          </mxGeometry>
        </mxCell>
        <mxCell id="4jp5xyB6MF7-QzCfI7jD-3" value="0, 4" style="rounded=0;whiteSpace=wrap;html=1;" parent="1" vertex="1">
          <mxGeometry x="1770" y="490" width="120" height="60" as="geometry" />
        </mxCell>
        <mxCell id="4jp5xyB6MF7-QzCfI7jD-7" value="9, 4" style="rounded=0;whiteSpace=wrap;html=1;" parent="1" vertex="1">
          <mxGeometry x="1320" y="620" width="120" height="60" as="geometry" />
        </mxCell>
        <mxCell id="4jp5xyB6MF7-QzCfI7jD-14" style="edgeStyle=orthogonalEdgeStyle;rounded=0;orthogonalLoop=1;jettySize=auto;html=1;entryX=0.5;entryY=0;entryDx=0;entryDy=0;" parent="1" source="4jp5xyB6MF7-QzCfI7jD-10" target="4jp5xyB6MF7-QzCfI7jD-13" edge="1">
          <mxGeometry relative="1" as="geometry" />
        </mxCell>
        <mxCell id="4jp5xyB6MF7-QzCfI7jD-17" value="2" style="edgeLabel;html=1;align=center;verticalAlign=middle;resizable=0;points=[];" parent="4jp5xyB6MF7-QzCfI7jD-14" vertex="1" connectable="0">
          <mxGeometry x="-0.4615" y="-2" relative="1" as="geometry">
            <mxPoint as="offset" />
          </mxGeometry>
        </mxCell>
        <mxCell id="4jp5xyB6MF7-QzCfI7jD-10" value="4, 0" style="rounded=0;whiteSpace=wrap;html=1;" parent="1" vertex="1">
          <mxGeometry x="2040" y="620" width="120" height="60" as="geometry" />
        </mxCell>
        <mxCell id="4jp5xyB6MF7-QzCfI7jD-19" style="edgeStyle=orthogonalEdgeStyle;rounded=0;orthogonalLoop=1;jettySize=auto;html=1;entryX=0.5;entryY=0;entryDx=0;entryDy=0;" parent="1" source="4jp5xyB6MF7-QzCfI7jD-13" target="4jp5xyB6MF7-QzCfI7jD-18" edge="1">
          <mxGeometry relative="1" as="geometry" />
        </mxCell>
        <mxCell id="4jp5xyB6MF7-QzCfI7jD-20" value="6" style="edgeLabel;html=1;align=center;verticalAlign=middle;resizable=0;points=[];" parent="4jp5xyB6MF7-QzCfI7jD-19" vertex="1" connectable="0">
          <mxGeometry x="-0.2193" y="-1" relative="1" as="geometry">
            <mxPoint as="offset" />
          </mxGeometry>
        </mxCell>
        <mxCell id="4jp5xyB6MF7-QzCfI7jD-13" value="4, 4" style="rounded=0;whiteSpace=wrap;html=1;" parent="1" vertex="1">
          <mxGeometry x="2040" y="780" width="120" height="60" as="geometry" />
        </mxCell>
        <mxCell id="4jp5xyB6MF7-QzCfI7jD-22" style="edgeStyle=orthogonalEdgeStyle;rounded=0;orthogonalLoop=1;jettySize=auto;html=1;entryX=0.5;entryY=0;entryDx=0;entryDy=0;" parent="1" source="4jp5xyB6MF7-QzCfI7jD-18" target="4jp5xyB6MF7-QzCfI7jD-21" edge="1">
          <mxGeometry relative="1" as="geometry" />
        </mxCell>
        <mxCell id="4jp5xyB6MF7-QzCfI7jD-23" value="2" style="edgeLabel;html=1;align=center;verticalAlign=middle;resizable=0;points=[];" parent="4jp5xyB6MF7-QzCfI7jD-22" vertex="1" connectable="0">
          <mxGeometry x="-0.4438" y="4" relative="1" as="geometry">
            <mxPoint as="offset" />
          </mxGeometry>
        </mxCell>
        <mxCell id="4jp5xyB6MF7-QzCfI7jD-28" style="edgeStyle=orthogonalEdgeStyle;rounded=0;orthogonalLoop=1;jettySize=auto;html=1;" parent="1" source="4jp5xyB6MF7-QzCfI7jD-21" target="4jp5xyB6MF7-QzCfI7jD-25" edge="1">
          <mxGeometry relative="1" as="geometry" />
        </mxCell>
        <mxCell id="4jp5xyB6MF7-QzCfI7jD-29" value="6" style="edgeLabel;html=1;align=center;verticalAlign=middle;resizable=0;points=[];" parent="4jp5xyB6MF7-QzCfI7jD-28" vertex="1" connectable="0">
          <mxGeometry x="-0.4779" y="1" relative="1" as="geometry">
            <mxPoint as="offset" />
          </mxGeometry>
        </mxCell>
        <mxCell id="4jp5xyB6MF7-QzCfI7jD-18" value="8, 0" style="rounded=0;whiteSpace=wrap;html=1;" parent="1" vertex="1">
          <mxGeometry x="2040" y="940" width="120" height="60" as="geometry" />
        </mxCell>
        <mxCell id="4jp5xyB6MF7-QzCfI7jD-21" value="8, 4" style="rounded=0;whiteSpace=wrap;html=1;" parent="1" vertex="1">
          <mxGeometry x="2040" y="1090" width="120" height="60" as="geometry" />
        </mxCell>
        <mxCell id="4jp5xyB6MF7-QzCfI7jD-30" style="edgeStyle=orthogonalEdgeStyle;rounded=0;orthogonalLoop=1;jettySize=auto;html=1;" parent="1" source="4jp5xyB6MF7-QzCfI7jD-25" target="4jp5xyB6MF7-QzCfI7jD-27" edge="1">
          <mxGeometry relative="1" as="geometry" />
        </mxCell>
        <mxCell id="4jp5xyB6MF7-QzCfI7jD-31" value="3" style="edgeLabel;html=1;align=center;verticalAlign=middle;resizable=0;points=[];" parent="4jp5xyB6MF7-QzCfI7jD-30" vertex="1" connectable="0">
          <mxGeometry x="-0.5831" y="1" relative="1" as="geometry">
            <mxPoint as="offset" />
          </mxGeometry>
        </mxCell>
        <mxCell id="4jp5xyB6MF7-QzCfI7jD-25" value="9, 3" style="rounded=0;whiteSpace=wrap;html=1;" parent="1" vertex="1">
          <mxGeometry x="2040" y="1220" width="120" height="60" as="geometry" />
        </mxCell>
        <mxCell id="4jp5xyB6MF7-QzCfI7jD-35" value="2" style="edgeStyle=orthogonalEdgeStyle;rounded=0;orthogonalLoop=1;jettySize=auto;html=1;entryX=0.5;entryY=0;entryDx=0;entryDy=0;" parent="1" source="4jp5xyB6MF7-QzCfI7jD-26" target="4jp5xyB6MF7-QzCfI7jD-34" edge="1">
          <mxGeometry relative="1" as="geometry" />
        </mxCell>
        <mxCell id="4jp5xyB6MF7-QzCfI7jD-26" value="3, 0" style="rounded=0;whiteSpace=wrap;html=1;" parent="1" vertex="1">
          <mxGeometry x="2040" y="1500" width="120" height="60" as="geometry" />
        </mxCell>
        <mxCell id="4jp5xyB6MF7-QzCfI7jD-32" style="edgeStyle=orthogonalEdgeStyle;rounded=0;orthogonalLoop=1;jettySize=auto;html=1;" parent="1" source="4jp5xyB6MF7-QzCfI7jD-27" target="4jp5xyB6MF7-QzCfI7jD-26" edge="1">
          <mxGeometry relative="1" as="geometry" />
        </mxCell>
        <mxCell id="4jp5xyB6MF7-QzCfI7jD-33" value="6" style="edgeLabel;html=1;align=center;verticalAlign=middle;resizable=0;points=[];" parent="4jp5xyB6MF7-QzCfI7jD-32" vertex="1" connectable="0">
          <mxGeometry x="-0.1657" y="1" relative="1" as="geometry">
            <mxPoint as="offset" />
          </mxGeometry>
        </mxCell>
        <mxCell id="4jp5xyB6MF7-QzCfI7jD-27" value="0, 3" style="rounded=0;whiteSpace=wrap;html=1;" parent="1" vertex="1">
          <mxGeometry x="2040" y="1370" width="120" height="60" as="geometry" />
        </mxCell>
        <mxCell id="4jp5xyB6MF7-QzCfI7jD-42" value="6" style="edgeStyle=orthogonalEdgeStyle;rounded=0;orthogonalLoop=1;jettySize=auto;html=1;" parent="1" source="4jp5xyB6MF7-QzCfI7jD-34" target="4jp5xyB6MF7-QzCfI7jD-39" edge="1">
          <mxGeometry relative="1" as="geometry" />
        </mxCell>
        <mxCell id="4jp5xyB6MF7-QzCfI7jD-34" value="3, 4" style="rounded=0;whiteSpace=wrap;html=1;" parent="1" vertex="1">
          <mxGeometry x="2040" y="1670" width="120" height="60" as="geometry" />
        </mxCell>
        <mxCell id="4jp5xyB6MF7-QzCfI7jD-44" style="edgeStyle=orthogonalEdgeStyle;rounded=0;orthogonalLoop=1;jettySize=auto;html=1;" parent="1" source="4jp5xyB6MF7-QzCfI7jD-39" target="4jp5xyB6MF7-QzCfI7jD-43" edge="1">
          <mxGeometry relative="1" as="geometry">
            <Array as="points">
              <mxPoint x="2100" y="1920" />
              <mxPoint x="2100" y="1920" />
            </Array>
          </mxGeometry>
        </mxCell>
        <mxCell id="4jp5xyB6MF7-QzCfI7jD-45" value="2" style="edgeLabel;html=1;align=center;verticalAlign=middle;resizable=0;points=[];" parent="4jp5xyB6MF7-QzCfI7jD-44" vertex="1" connectable="0">
          <mxGeometry x="-0.2339" y="3" relative="1" as="geometry">
            <mxPoint as="offset" />
          </mxGeometry>
        </mxCell>
        <mxCell id="4jp5xyB6MF7-QzCfI7jD-39" value="7, 0" style="rounded=0;whiteSpace=wrap;html=1;" parent="1" vertex="1">
          <mxGeometry x="2040" y="1820" width="120" height="60" as="geometry" />
        </mxCell>
        <mxCell id="4jp5xyB6MF7-QzCfI7jD-48" style="edgeStyle=orthogonalEdgeStyle;rounded=0;orthogonalLoop=1;jettySize=auto;html=1;entryX=0.5;entryY=0;entryDx=0;entryDy=0;" parent="1" source="4jp5xyB6MF7-QzCfI7jD-43" target="4jp5xyB6MF7-QzCfI7jD-46" edge="1">
          <mxGeometry relative="1" as="geometry">
            <Array as="points">
              <mxPoint x="2100" y="2130" />
              <mxPoint x="2100" y="2130" />
            </Array>
          </mxGeometry>
        </mxCell>
        <mxCell id="4jp5xyB6MF7-QzCfI7jD-49" value="6" style="edgeLabel;html=1;align=center;verticalAlign=middle;resizable=0;points=[];" parent="4jp5xyB6MF7-QzCfI7jD-48" vertex="1" connectable="0">
          <mxGeometry x="-0.4073" y="4" relative="1" as="geometry">
            <mxPoint as="offset" />
          </mxGeometry>
        </mxCell>
        <mxCell id="4jp5xyB6MF7-QzCfI7jD-43" value="7, 4" style="rounded=0;whiteSpace=wrap;html=1;" parent="1" vertex="1">
          <mxGeometry x="2040" y="1980" width="120" height="60" as="geometry" />
        </mxCell>
        <mxCell id="4jp5xyB6MF7-QzCfI7jD-51" style="edgeStyle=orthogonalEdgeStyle;rounded=0;orthogonalLoop=1;jettySize=auto;html=1;" parent="1" source="4jp5xyB6MF7-QzCfI7jD-46" target="4jp5xyB6MF7-QzCfI7jD-50" edge="1">
          <mxGeometry relative="1" as="geometry" />
        </mxCell>
        <mxCell id="4jp5xyB6MF7-QzCfI7jD-52" value="3" style="edgeLabel;html=1;align=center;verticalAlign=middle;resizable=0;points=[];" parent="4jp5xyB6MF7-QzCfI7jD-51" vertex="1" connectable="0">
          <mxGeometry x="-0.6132" y="-1" relative="1" as="geometry">
            <mxPoint as="offset" />
          </mxGeometry>
        </mxCell>
        <mxCell id="4jp5xyB6MF7-QzCfI7jD-46" value="9, 2" style="rounded=0;whiteSpace=wrap;html=1;" parent="1" vertex="1">
          <mxGeometry x="2040" y="2140" width="120" height="60" as="geometry" />
        </mxCell>
        <mxCell id="4jp5xyB6MF7-QzCfI7jD-54" value="6" style="edgeStyle=orthogonalEdgeStyle;rounded=0;orthogonalLoop=1;jettySize=auto;html=1;entryX=0.5;entryY=0;entryDx=0;entryDy=0;" parent="1" source="4jp5xyB6MF7-QzCfI7jD-50" target="4jp5xyB6MF7-QzCfI7jD-53" edge="1">
          <mxGeometry relative="1" as="geometry" />
        </mxCell>
        <mxCell id="4jp5xyB6MF7-QzCfI7jD-50" value="0, 2" style="rounded=0;whiteSpace=wrap;html=1;" parent="1" vertex="1">
          <mxGeometry x="2040" y="2260" width="120" height="60" as="geometry" />
        </mxCell>
        <mxCell id="4jp5xyB6MF7-QzCfI7jD-57" value="2" style="edgeStyle=orthogonalEdgeStyle;rounded=0;orthogonalLoop=1;jettySize=auto;html=1;" parent="1" source="4jp5xyB6MF7-QzCfI7jD-53" target="4jp5xyB6MF7-QzCfI7jD-56" edge="1">
          <mxGeometry relative="1" as="geometry" />
        </mxCell>
        <mxCell id="4jp5xyB6MF7-QzCfI7jD-53" value="2, 0" style="rounded=0;whiteSpace=wrap;html=1;" parent="1" vertex="1">
          <mxGeometry x="2040" y="2380" width="120" height="60" as="geometry" />
        </mxCell>
        <mxCell id="4jp5xyB6MF7-QzCfI7jD-59" value="6" style="edgeStyle=orthogonalEdgeStyle;rounded=0;orthogonalLoop=1;jettySize=auto;html=1;entryX=0.5;entryY=0;entryDx=0;entryDy=0;" parent="1" source="4jp5xyB6MF7-QzCfI7jD-56" target="4jp5xyB6MF7-QzCfI7jD-58" edge="1">
          <mxGeometry relative="1" as="geometry" />
        </mxCell>
        <mxCell id="4jp5xyB6MF7-QzCfI7jD-56" value="2, 4" style="rounded=0;whiteSpace=wrap;html=1;" parent="1" vertex="1">
          <mxGeometry x="2040" y="2500" width="120" height="60" as="geometry" />
        </mxCell>
        <mxCell id="4jp5xyB6MF7-QzCfI7jD-58" value="6, 4" style="rounded=0;whiteSpace=wrap;html=1;fillColor=#d5e8d4;strokeColor=#82b366;" parent="1" vertex="1">
          <mxGeometry x="2040" y="2620" width="120" height="60" as="geometry" />
        </mxCell>
      </root>
    </mxGraphModel>
  </diagram>
  <diagram id="tY4k0ol6O_EaTR8yEjaR" name="Queu">
    <mxGraphModel dx="3500" dy="1937" grid="1" gridSize="10" guides="1" tooltips="1" connect="1" arrows="1" fold="1" page="1" pageScale="1" pageWidth="3300" pageHeight="4681" math="0" shadow="0">
      <root>
        <mxCell id="0" />
        <mxCell id="1" parent="0" />
        <mxCell id="rOvSNHKAnOwQBiMTbsbB-1" value="1" style="edgeStyle=orthogonalEdgeStyle;rounded=0;orthogonalLoop=1;jettySize=auto;html=1;entryX=0.5;entryY=0;entryDx=0;entryDy=0;" edge="1" parent="1" source="rOvSNHKAnOwQBiMTbsbB-3" target="rOvSNHKAnOwQBiMTbsbB-7">
          <mxGeometry relative="1" as="geometry" />
        </mxCell>
        <mxCell id="rOvSNHKAnOwQBiMTbsbB-2" value="2" style="edgeStyle=orthogonalEdgeStyle;rounded=0;orthogonalLoop=1;jettySize=auto;html=1;" edge="1" parent="1" source="rOvSNHKAnOwQBiMTbsbB-3" target="rOvSNHKAnOwQBiMTbsbB-12">
          <mxGeometry relative="1" as="geometry" />
        </mxCell>
        <mxCell id="rOvSNHKAnOwQBiMTbsbB-3" value="0, 0" style="rounded=0;whiteSpace=wrap;html=1;" vertex="1" parent="1">
          <mxGeometry x="1280" y="60" width="120" height="60" as="geometry" />
        </mxCell>
        <mxCell id="rOvSNHKAnOwQBiMTbsbB-4" value="2" style="edgeStyle=orthogonalEdgeStyle;rounded=0;orthogonalLoop=1;jettySize=auto;html=1;entryX=0.5;entryY=0;entryDx=0;entryDy=0;" edge="1" parent="1" source="rOvSNHKAnOwQBiMTbsbB-7" target="rOvSNHKAnOwQBiMTbsbB-13">
          <mxGeometry relative="1" as="geometry" />
        </mxCell>
        <mxCell id="rOvSNHKAnOwQBiMTbsbB-5" style="edgeStyle=orthogonalEdgeStyle;rounded=0;orthogonalLoop=1;jettySize=auto;html=1;entryX=0.5;entryY=0;entryDx=0;entryDy=0;" edge="1" parent="1" source="rOvSNHKAnOwQBiMTbsbB-7" target="rOvSNHKAnOwQBiMTbsbB-15">
          <mxGeometry relative="1" as="geometry">
            <Array as="points">
              <mxPoint x="1140" y="210" />
            </Array>
          </mxGeometry>
        </mxCell>
        <mxCell id="rOvSNHKAnOwQBiMTbsbB-6" value="5" style="edgeLabel;html=1;align=center;verticalAlign=middle;resizable=0;points=[];" vertex="1" connectable="0" parent="rOvSNHKAnOwQBiMTbsbB-5">
          <mxGeometry x="-0.5327" y="-2" relative="1" as="geometry">
            <mxPoint as="offset" />
          </mxGeometry>
        </mxCell>
        <mxCell id="rOvSNHKAnOwQBiMTbsbB-7" value="9, 0" style="rounded=0;whiteSpace=wrap;html=1;" vertex="1" parent="1">
          <mxGeometry x="880" y="180" width="120" height="60" as="geometry" />
        </mxCell>
        <mxCell id="rOvSNHKAnOwQBiMTbsbB-8" style="edgeStyle=orthogonalEdgeStyle;rounded=0;orthogonalLoop=1;jettySize=auto;html=1;entryX=0.5;entryY=0;entryDx=0;entryDy=0;" edge="1" parent="1" source="rOvSNHKAnOwQBiMTbsbB-12" target="rOvSNHKAnOwQBiMTbsbB-16">
          <mxGeometry relative="1" as="geometry">
            <Array as="points">
              <mxPoint x="1420" y="210" />
            </Array>
          </mxGeometry>
        </mxCell>
        <mxCell id="rOvSNHKAnOwQBiMTbsbB-9" value="1" style="edgeLabel;html=1;align=center;verticalAlign=middle;resizable=0;points=[];" vertex="1" connectable="0" parent="rOvSNHKAnOwQBiMTbsbB-8">
          <mxGeometry x="0.0489" y="-1" relative="1" as="geometry">
            <mxPoint as="offset" />
          </mxGeometry>
        </mxCell>
        <mxCell id="rOvSNHKAnOwQBiMTbsbB-10" style="edgeStyle=orthogonalEdgeStyle;rounded=0;orthogonalLoop=1;jettySize=auto;html=1;" edge="1" parent="1" source="rOvSNHKAnOwQBiMTbsbB-12" target="rOvSNHKAnOwQBiMTbsbB-19">
          <mxGeometry relative="1" as="geometry" />
        </mxCell>
        <mxCell id="rOvSNHKAnOwQBiMTbsbB-11" value="6" style="edgeLabel;html=1;align=center;verticalAlign=middle;resizable=0;points=[];" vertex="1" connectable="0" parent="rOvSNHKAnOwQBiMTbsbB-10">
          <mxGeometry x="-0.2084" y="2" relative="1" as="geometry">
            <mxPoint as="offset" />
          </mxGeometry>
        </mxCell>
        <mxCell id="rOvSNHKAnOwQBiMTbsbB-12" value="0, 4" style="rounded=0;whiteSpace=wrap;html=1;" vertex="1" parent="1">
          <mxGeometry x="1480" y="180" width="120" height="60" as="geometry" />
        </mxCell>
        <mxCell id="rOvSNHKAnOwQBiMTbsbB-13" value="9, 4" style="rounded=0;whiteSpace=wrap;html=1;" vertex="1" parent="1">
          <mxGeometry x="650" y="340" width="120" height="60" as="geometry" />
        </mxCell>
        <mxCell id="rOvSNHKAnOwQBiMTbsbB-14" value="4" style="edgeStyle=orthogonalEdgeStyle;rounded=0;orthogonalLoop=1;jettySize=auto;html=1;entryX=0.5;entryY=0;entryDx=0;entryDy=0;" edge="1" parent="1" source="rOvSNHKAnOwQBiMTbsbB-15" target="rOvSNHKAnOwQBiMTbsbB-21">
          <mxGeometry relative="1" as="geometry" />
        </mxCell>
        <mxCell id="rOvSNHKAnOwQBiMTbsbB-15" value="5, 4" style="rounded=0;whiteSpace=wrap;html=1;" vertex="1" parent="1">
          <mxGeometry x="1080" y="340" width="120" height="60" as="geometry" />
        </mxCell>
        <mxCell id="rOvSNHKAnOwQBiMTbsbB-16" value="9, 4" style="rounded=0;whiteSpace=wrap;html=1;fillColor=#fff2cc;strokeColor=#d6b656;" vertex="1" parent="1">
          <mxGeometry x="1360" y="340" width="120" height="60" as="geometry" />
        </mxCell>
        <mxCell id="rOvSNHKAnOwQBiMTbsbB-17" style="edgeStyle=orthogonalEdgeStyle;rounded=0;orthogonalLoop=1;jettySize=auto;html=1;entryX=0.5;entryY=0;entryDx=0;entryDy=0;" edge="1" parent="1" source="rOvSNHKAnOwQBiMTbsbB-19" target="rOvSNHKAnOwQBiMTbsbB-23">
          <mxGeometry relative="1" as="geometry" />
        </mxCell>
        <mxCell id="rOvSNHKAnOwQBiMTbsbB-18" value="2" style="edgeLabel;html=1;align=center;verticalAlign=middle;resizable=0;points=[];" vertex="1" connectable="0" parent="rOvSNHKAnOwQBiMTbsbB-17">
          <mxGeometry x="-0.4052" y="1" relative="1" as="geometry">
            <mxPoint as="offset" />
          </mxGeometry>
        </mxCell>
        <mxCell id="rOvSNHKAnOwQBiMTbsbB-19" value="4, 0" style="rounded=0;whiteSpace=wrap;html=1;" vertex="1" parent="1">
          <mxGeometry x="1610" y="340" width="120" height="60" as="geometry" />
        </mxCell>
        <mxCell id="rOvSNHKAnOwQBiMTbsbB-20" value="5" style="edgeStyle=orthogonalEdgeStyle;rounded=0;orthogonalLoop=1;jettySize=auto;html=1;entryX=0.5;entryY=0;entryDx=0;entryDy=0;" edge="1" parent="1" source="rOvSNHKAnOwQBiMTbsbB-21" target="rOvSNHKAnOwQBiMTbsbB-25">
          <mxGeometry relative="1" as="geometry" />
        </mxCell>
        <mxCell id="rOvSNHKAnOwQBiMTbsbB-21" value="5, 0" style="rounded=0;whiteSpace=wrap;html=1;" vertex="1" parent="1">
          <mxGeometry x="1080" y="500" width="120" height="60" as="geometry" />
        </mxCell>
        <mxCell id="rOvSNHKAnOwQBiMTbsbB-22" value="6" style="edgeStyle=orthogonalEdgeStyle;rounded=0;orthogonalLoop=1;jettySize=auto;html=1;entryX=0.5;entryY=0;entryDx=0;entryDy=0;" edge="1" parent="1" source="rOvSNHKAnOwQBiMTbsbB-23" target="rOvSNHKAnOwQBiMTbsbB-27">
          <mxGeometry relative="1" as="geometry" />
        </mxCell>
        <mxCell id="rOvSNHKAnOwQBiMTbsbB-23" value="4, 4" style="rounded=0;whiteSpace=wrap;html=1;" vertex="1" parent="1">
          <mxGeometry x="1610" y="500" width="120" height="60" as="geometry" />
        </mxCell>
        <mxCell id="rOvSNHKAnOwQBiMTbsbB-24" value="4" style="edgeStyle=orthogonalEdgeStyle;rounded=0;orthogonalLoop=1;jettySize=auto;html=1;entryX=0.5;entryY=0;entryDx=0;entryDy=0;" edge="1" parent="1" source="rOvSNHKAnOwQBiMTbsbB-25" target="rOvSNHKAnOwQBiMTbsbB-29">
          <mxGeometry relative="1" as="geometry" />
        </mxCell>
        <mxCell id="rOvSNHKAnOwQBiMTbsbB-25" value="1, 4" style="rounded=0;whiteSpace=wrap;html=1;" vertex="1" parent="1">
          <mxGeometry x="1080" y="620" width="120" height="60" as="geometry" />
        </mxCell>
        <mxCell id="rOvSNHKAnOwQBiMTbsbB-26" value="2" style="edgeStyle=orthogonalEdgeStyle;rounded=0;orthogonalLoop=1;jettySize=auto;html=1;entryX=0.5;entryY=0;entryDx=0;entryDy=0;" edge="1" parent="1" source="rOvSNHKAnOwQBiMTbsbB-27" target="rOvSNHKAnOwQBiMTbsbB-31">
          <mxGeometry relative="1" as="geometry" />
        </mxCell>
        <mxCell id="rOvSNHKAnOwQBiMTbsbB-27" value="8, 0" style="rounded=0;whiteSpace=wrap;html=1;" vertex="1" parent="1">
          <mxGeometry x="1610" y="620" width="120" height="60" as="geometry" />
        </mxCell>
        <mxCell id="rOvSNHKAnOwQBiMTbsbB-28" value="5" style="edgeStyle=orthogonalEdgeStyle;rounded=0;orthogonalLoop=1;jettySize=auto;html=1;entryX=0.5;entryY=0;entryDx=0;entryDy=0;" edge="1" parent="1" source="rOvSNHKAnOwQBiMTbsbB-29" target="rOvSNHKAnOwQBiMTbsbB-33">
          <mxGeometry relative="1" as="geometry" />
        </mxCell>
        <mxCell id="rOvSNHKAnOwQBiMTbsbB-29" value="1, 0" style="rounded=0;whiteSpace=wrap;html=1;" vertex="1" parent="1">
          <mxGeometry x="1080" y="740" width="120" height="60" as="geometry" />
        </mxCell>
        <mxCell id="rOvSNHKAnOwQBiMTbsbB-30" value="6" style="edgeStyle=orthogonalEdgeStyle;rounded=0;orthogonalLoop=1;jettySize=auto;html=1;entryX=0.5;entryY=0;entryDx=0;entryDy=0;" edge="1" parent="1" source="rOvSNHKAnOwQBiMTbsbB-31" target="rOvSNHKAnOwQBiMTbsbB-35">
          <mxGeometry relative="1" as="geometry" />
        </mxCell>
        <mxCell id="rOvSNHKAnOwQBiMTbsbB-31" value="8, 4" style="rounded=0;whiteSpace=wrap;html=1;" vertex="1" parent="1">
          <mxGeometry x="1610" y="740" width="120" height="60" as="geometry" />
        </mxCell>
        <mxCell id="rOvSNHKAnOwQBiMTbsbB-32" value="1" style="edgeStyle=orthogonalEdgeStyle;rounded=0;orthogonalLoop=1;jettySize=auto;html=1;entryX=0.5;entryY=0;entryDx=0;entryDy=0;" edge="1" parent="1" source="rOvSNHKAnOwQBiMTbsbB-33" target="rOvSNHKAnOwQBiMTbsbB-37">
          <mxGeometry relative="1" as="geometry" />
        </mxCell>
        <mxCell id="rOvSNHKAnOwQBiMTbsbB-33" value="0, 1" style="rounded=0;whiteSpace=wrap;html=1;" vertex="1" parent="1">
          <mxGeometry x="1080" y="870" width="120" height="60" as="geometry" />
        </mxCell>
        <mxCell id="rOvSNHKAnOwQBiMTbsbB-34" value="3" style="edgeStyle=orthogonalEdgeStyle;rounded=0;orthogonalLoop=1;jettySize=auto;html=1;entryX=0.5;entryY=0;entryDx=0;entryDy=0;" edge="1" parent="1" source="rOvSNHKAnOwQBiMTbsbB-35" target="rOvSNHKAnOwQBiMTbsbB-39">
          <mxGeometry relative="1" as="geometry" />
        </mxCell>
        <mxCell id="rOvSNHKAnOwQBiMTbsbB-35" value="9, 3" style="rounded=0;whiteSpace=wrap;html=1;" vertex="1" parent="1">
          <mxGeometry x="1610" y="860" width="120" height="60" as="geometry" />
        </mxCell>
        <mxCell id="rOvSNHKAnOwQBiMTbsbB-36" value="5" style="edgeStyle=orthogonalEdgeStyle;rounded=0;orthogonalLoop=1;jettySize=auto;html=1;entryX=0.5;entryY=0;entryDx=0;entryDy=0;" edge="1" parent="1" source="rOvSNHKAnOwQBiMTbsbB-37" target="rOvSNHKAnOwQBiMTbsbB-40">
          <mxGeometry relative="1" as="geometry" />
        </mxCell>
        <mxCell id="rOvSNHKAnOwQBiMTbsbB-37" value="9 ,1" style="rounded=0;whiteSpace=wrap;html=1;" vertex="1" parent="1">
          <mxGeometry x="1080" y="980" width="120" height="60" as="geometry" />
        </mxCell>
        <mxCell id="rOvSNHKAnOwQBiMTbsbB-38" value="6" style="edgeStyle=orthogonalEdgeStyle;rounded=0;orthogonalLoop=1;jettySize=auto;html=1;entryX=0.5;entryY=0;entryDx=0;entryDy=0;" edge="1" parent="1" source="rOvSNHKAnOwQBiMTbsbB-39" target="rOvSNHKAnOwQBiMTbsbB-41">
          <mxGeometry relative="1" as="geometry" />
        </mxCell>
        <mxCell id="rOvSNHKAnOwQBiMTbsbB-39" value="0, 3" style="rounded=0;whiteSpace=wrap;html=1;" vertex="1" parent="1">
          <mxGeometry x="1610" y="980" width="120" height="60" as="geometry" />
        </mxCell>
        <mxCell id="rOvSNHKAnOwQBiMTbsbB-40" value="6, 4" style="rounded=0;whiteSpace=wrap;html=1;fillColor=#d5e8d4;strokeColor=#82b366;" vertex="1" parent="1">
          <mxGeometry x="1080" y="1100" width="120" height="60" as="geometry" />
        </mxCell>
        <mxCell id="rOvSNHKAnOwQBiMTbsbB-41" value="3, 0" style="rounded=0;whiteSpace=wrap;html=1;" vertex="1" parent="1">
          <mxGeometry x="1610" y="1100" width="120" height="60" as="geometry" />
        </mxCell>
      </root>
    </mxGraphModel>
  </diagram>
</mxfile>
